<svg width="51" height="51" viewBox="0 0 51 51" fill="none" xmlns="http://www.w3.org/2000/svg">
<path d="M42.133 35.4441C42.1219 35.4642 42.1132 35.4851 42.1002 35.5044C42.0711 35.5482 42.0377 35.589 42.0006 35.6263L35.6259 42.0009C35.4765 42.1502 35.2738 42.234 35.0626 42.2339C34.8514 42.2339 34.6488 42.1499 34.4994 42.0005C34.3501 41.8512 34.2661 41.6486 34.2661 41.4374C34.266 41.2262 34.3498 41.0235 34.4991 40.8741L39.5136 35.8594H9.5625C9.35116 35.8594 9.14847 35.7754 8.99902 35.626C8.84958 35.4765 8.76562 35.2738 8.76562 35.0625C8.76562 34.8512 8.84958 34.6485 8.99902 34.499C9.14847 34.3496 9.35116 34.2656 9.5625 34.2656H39.5136L34.4991 29.2509C34.3498 29.1015 34.266 28.8988 34.2661 28.6876C34.2661 28.4764 34.3501 28.2738 34.4994 28.1244C34.6488 27.9751 34.8514 27.8911 35.0626 27.8911C35.2738 27.891 35.4765 27.9748 35.6259 28.1241L42.0005 34.4987C42.0377 34.5359 42.0711 34.5768 42.1002 34.6206C42.1132 34.6399 42.1219 34.6607 42.133 34.6809C42.1479 34.7057 42.1614 34.7314 42.1735 34.7577C42.1832 34.7841 42.1915 34.811 42.1984 34.8383C42.2051 34.861 42.2139 34.8828 42.2186 34.9065C42.2391 35.0095 42.2391 35.1155 42.2186 35.2185C42.2139 35.2422 42.2051 35.2639 42.1984 35.2867C42.1915 35.314 42.1832 35.3409 42.1735 35.3673C42.1614 35.3936 42.1479 35.4192 42.133 35.4441ZM8.82662 15.6327C8.81678 15.6592 8.80837 15.6862 8.80142 15.7136C8.79481 15.7362 8.78605 15.7579 8.78138 15.7815C8.76086 15.8845 8.76086 15.9905 8.78138 16.0935C8.78605 16.1171 8.79481 16.1388 8.80142 16.1614C8.80837 16.1888 8.81678 16.2158 8.82662 16.2423C8.8386 16.2685 8.85205 16.2941 8.86689 16.3188C8.87788 16.339 8.88683 16.36 8.89976 16.3794C8.9289 16.4232 8.96226 16.464 8.99937 16.5013L15.3741 22.8759C15.448 22.95 15.5359 23.0087 15.6326 23.0488C15.7293 23.0889 15.8329 23.1096 15.9376 23.1096C16.0423 23.1097 16.1459 23.0891 16.2427 23.049C16.3394 23.009 16.4272 22.9503 16.5013 22.8763C16.5753 22.8022 16.634 22.7144 16.674 22.6177C16.7141 22.5209 16.7347 22.4173 16.7346 22.3126C16.7346 22.2079 16.7139 22.1043 16.6738 22.0076C16.6337 21.9109 16.575 21.823 16.5009 21.7491L11.4864 16.7344H41.4375C41.6488 16.7344 41.8515 16.6504 42.001 16.501C42.1504 16.3515 42.2344 16.1488 42.2344 15.9375C42.2344 15.7262 42.1504 15.5235 42.001 15.374C41.8515 15.2246 41.6488 15.1406 41.4375 15.1406H11.4864L16.5009 10.1259C16.575 10.0519 16.6337 9.9641 16.6738 9.86741C16.714 9.77072 16.7346 9.66707 16.7346 9.5624C16.7347 9.45772 16.7141 9.35406 16.674 9.25734C16.634 9.16062 16.5753 9.07275 16.5013 8.99873C16.4273 8.92471 16.3394 8.866 16.2427 8.82596C16.1459 8.78591 16.0423 8.76532 15.9376 8.76535C15.8329 8.76539 15.7293 8.78604 15.6326 8.82615C15.5359 8.86625 15.4481 8.92502 15.3741 8.99908L8.99948 15.3737C8.96232 15.4109 8.92893 15.4518 8.89978 15.4956C8.88684 15.515 8.87789 15.536 8.86691 15.5562C8.85206 15.5809 8.83861 15.6065 8.82662 15.6327Z" fill="#FBBA02"/>
</svg>
